<svg width="32" height="32" viewBox="0 0 32 32" fill="none" xmlns="http://www.w3.org/2000/svg">
<path d="M21.332 11.3334H23.9987C23.9987 7.55069 20.3253 5.82535 17.332 5.42802V2.66669H14.6653V5.42802C11.672 5.82535 7.99866 7.55069 7.99866 11.3334C7.99866 14.9414 11.5533 16.8174 14.6653 17.24V23.8667C12.7347 23.532 10.6653 22.5014 10.6653 20.6667H7.99866C7.99866 24.1187 11.232 26.1587 14.6653 26.5814V29.3334H17.332V26.5734C20.3253 26.176 23.9987 24.4494 23.9987 20.6667C23.9987 16.884 20.3253 15.1587 17.332 14.7614V8.13335C19.1053 8.45202 21.332 9.38802 21.332 11.3334ZM10.6653 11.3334C10.6653 9.38802 12.892 8.45202 14.6653 8.13335V14.532C12.8373 14.1947 10.6653 13.196 10.6653 11.3334ZM21.332 20.6667C21.332 22.612 19.1053 23.548 17.332 23.8667V17.4667C19.1053 17.7854 21.332 18.7214 21.332 20.6667Z" fill="#F15B7D"/>
</svg>
