<svg width="27" height="27" viewBox="0 0 27 27" fill="none" xmlns="http://www.w3.org/2000/svg">
<path d="M5.62836 24.75H21.3784C22.6192 24.75 23.6284 23.7409 23.6284 22.5V12.375C23.6285 12.2273 23.5995 12.081 23.5429 11.9445C23.4863 11.808 23.4034 11.684 23.2987 11.5797L14.2987 2.57967C14.1944 2.4751 14.0704 2.39215 13.9339 2.33555C13.7974 2.27895 13.6511 2.24982 13.5034 2.24982C13.3556 2.24982 13.2093 2.27895 13.0728 2.33555C12.9364 2.39215 12.8124 2.4751 12.708 2.57967L3.70799 11.5797C3.60337 11.684 3.52039 11.808 3.46382 11.9445C3.40725 12.081 3.37821 12.2273 3.37837 12.375V22.5C3.37837 23.7409 4.38749 24.75 5.62836 24.75ZM11.2534 22.5V16.875H15.7534V22.5H11.2534ZM5.62836 12.8408L13.5034 4.96579L21.3784 12.8408L21.3795 22.5H18.0034V16.875C18.0034 15.6342 16.9942 14.625 15.7534 14.625H11.2534C10.0125 14.625 9.00337 15.6342 9.00337 16.875V22.5H5.62836V12.8408Z" fill="#F15B7D"/>
</svg>
