<svg width="29" height="29" viewBox="0 0 29 29" fill="none" xmlns="http://www.w3.org/2000/svg">
<path d="M22.7695 9.51562C22.6036 11.8192 20.8947 13.5938 19.0313 13.5938C17.1678 13.5938 15.4561 11.8198 15.293 9.51562C15.1231 7.11916 16.7866 5.4375 19.0313 5.4375C21.2759 5.4375 22.9395 7.16277 22.7695 9.51562Z" stroke="#F15B7D" stroke-width="1.8125" stroke-linecap="round" stroke-linejoin="round"/>
<path d="M19.0312 17.2188C15.34 17.2188 11.7903 19.0522 10.9011 22.6228C10.7832 23.0952 11.0795 23.5625 11.5649 23.5625H26.4982C26.9836 23.5625 27.2781 23.0952 27.162 22.6228C26.2728 18.995 22.7231 17.2188 19.0312 17.2188Z" stroke="#F15B7D" stroke-width="1.8125" stroke-miterlimit="10"/>
<path d="M11.3281 10.5318C11.1956 12.3714 9.81469 13.8203 8.32618 13.8203C6.83766 13.8203 5.4545 12.372 5.32422 10.5318C5.18885 8.61787 6.53293 7.25 8.32618 7.25C10.1194 7.25 11.4635 8.65299 11.3281 10.5318Z" stroke="#F15B7D" stroke-width="1.8125" stroke-linecap="round" stroke-linejoin="round"/>
<path d="M11.668 17.332C10.6456 16.8636 9.51959 16.6835 8.32617 16.6835C5.38086 16.6835 2.54316 18.1476 1.83233 20.9995C1.73887 21.3767 1.97563 21.75 2.36305 21.75H8.72266" stroke="#F15B7D" stroke-width="1.8125" stroke-miterlimit="10" stroke-linecap="round"/>
</svg>
