<svg width="18" height="18" viewBox="0 0 18 18" fill="none" xmlns="http://www.w3.org/2000/svg">
<path d="M17.1849 2.8458L14.7928 0.455957C14.5008 0.163965 14.11 0 13.6967 0C13.2834 0 12.8926 0.161719 12.6006 0.455957L10.0243 3.02773C9.73232 3.31973 9.56836 3.71279 9.56836 4.12607C9.56836 4.5416 9.73008 4.93018 10.0243 5.22441L12.0368 7.23916C11.5784 8.30737 10.9196 9.27793 10.0962 10.0984C9.27188 10.9272 8.3083 11.5809 7.23916 12.0436L5.22666 10.0288C4.93467 9.73682 4.54385 9.57285 4.13057 9.57285C3.92672 9.5721 3.72477 9.61204 3.53655 9.69033C3.34834 9.76863 3.17764 9.8837 3.03447 10.0288L0.455957 12.6006C0.163965 12.8926 0 13.2856 0 13.6989C0 14.1145 0.161719 14.503 0.455957 14.7973L2.8458 17.1871C3.34443 17.6857 4.03174 17.971 4.73701 17.971C4.88301 17.971 5.02451 17.9598 5.16826 17.9351C8.14209 17.4454 11.0935 15.8619 13.4766 13.4811C15.8574 11.0957 17.4387 8.14434 17.9328 5.16826C18.0743 4.32373 17.7913 3.45449 17.1849 2.8458ZM16.3403 4.90098C15.9023 7.54912 14.4783 10.1905 12.3333 12.3355C10.1883 14.4806 7.54912 15.9046 4.90098 16.3426C4.56855 16.3987 4.22715 16.2864 3.98457 16.0461L1.6374 13.6989L4.12607 11.208L6.81689 13.9033L6.83711 13.9235L7.32227 13.7438C8.79329 13.203 10.1291 12.3488 11.2372 11.2403C12.3452 10.1319 13.199 8.79573 13.7394 7.32451L13.919 6.83936L11.2058 4.12832L13.6944 1.6374L16.0416 3.98457C16.2842 4.22715 16.3965 4.56855 16.3403 4.90098Z" fill="white"/>
</svg>
