<svg width="30" height="30" viewBox="0 0 30 30" fill="none" xmlns="http://www.w3.org/2000/svg">
<path d="M15.485 26C14.3485 25.431 13.3129 24.862 12.3782 24.293C11.4436 23.724 10.6099 23.1213 9.87709 22.4849C9.14432 21.8485 8.49754 21.2645 7.93675 20.7329C7.37596 20.2013 6.88994 19.5575 6.4787 18.8013C6.06745 18.0451 5.71976 17.4012 5.43563 16.8696C5.15149 16.3381 4.9197 15.6118 4.74024 14.6909C4.56079 13.77 4.41872 13.0288 4.31404 12.4673C4.20936 11.9058 4.13459 11.071 4.08973 9.96289C4.04486 8.85482 4.01869 7.98633 4.01122 7.35742C4.00374 6.72852 4 5.75521 4 4.4375C7.64888 3.47917 11.4772 3 15.485 3C19.4778 3 23.3062 3.47917 26.97 4.4375C26.97 5.75521 26.9663 6.73226 26.9588 7.36865C26.9513 8.00505 26.9251 8.87354 26.8803 9.97412C26.8354 11.0747 26.7606 11.9095 26.656 12.4785C26.5513 13.0475 26.4092 13.7887 26.2298 14.7021C26.0503 15.6156 25.8185 16.3381 25.5344 16.8696C25.2502 17.4012 24.9026 18.0451 24.4913 18.8013C24.0801 19.5575 23.594 20.2013 23.0332 20.7329C22.4725 21.2645 21.8257 21.8485 21.0929 22.4849C20.3601 23.1213 19.5264 23.724 18.5918 24.293C17.6571 24.862 16.6215 25.431 15.485 26ZM6.87125 6.9082C6.87125 8.24089 6.87873 9.22542 6.89368 9.86182C6.90864 10.4982 6.96845 11.3405 7.07313 12.3887C7.17782 13.4368 7.33858 14.238 7.55542 14.792C7.77225 15.346 8.08256 16.0199 8.48633 16.8135C8.8901 17.6071 9.39855 18.2772 10.0117 18.8237C10.6248 19.3703 11.3875 19.958 12.2997 20.5869C13.2119 21.2158 14.2737 21.8223 15.485 22.4062C16.6963 21.8223 17.7581 21.2158 18.6703 20.5869C19.5825 19.958 20.3452 19.3703 20.9583 18.8237C21.5715 18.2772 22.0799 17.6071 22.4837 16.8135C22.8874 16.0199 23.1977 15.346 23.4146 14.792C23.6314 14.238 23.7922 13.4368 23.8969 12.3887C24.0015 11.3405 24.0614 10.4982 24.0763 9.86182C24.0913 9.22542 24.0988 8.24089 24.0988 6.9082C21.3621 6.2194 18.4908 5.875 15.485 5.875C12.4792 5.875 9.60791 6.2194 6.87125 6.9082Z" fill="#F15B7D"/>
</svg>
