<svg width="36" height="36" viewBox="0 0 36 36" fill="none" xmlns="http://www.w3.org/2000/svg">
<path d="M24.2935 10.4976C24.0929 10.5122 23.8959 10.5593 23.7104 10.637H23.7079C23.5298 10.7076 22.6829 11.0638 21.3954 11.6038L16.7816 13.547C13.471 14.9407 10.2166 16.3132 10.2166 16.3132L10.2554 16.2982C10.2554 16.2982 10.031 16.372 9.79664 16.5326C9.65185 16.6247 9.52725 16.7453 9.43039 16.887C9.31539 17.0557 9.22289 17.3138 9.25727 17.5807C9.31352 18.032 9.60602 18.3026 9.81602 18.452C10.0285 18.6032 10.231 18.6738 10.231 18.6738H10.236L13.2879 19.702C13.4248 20.1413 14.2179 22.7488 14.4085 23.3495C14.521 23.7082 14.6304 23.9326 14.7673 24.1038C14.8335 24.1913 14.911 24.2645 15.0041 24.3232C15.0526 24.3514 15.1042 24.3736 15.1579 24.3895L15.1266 24.382C15.136 24.3845 15.1435 24.392 15.1504 24.3945C15.1754 24.4013 15.1923 24.4038 15.2241 24.4088C15.7073 24.5551 16.0954 24.2551 16.0954 24.2551L16.1173 24.2376L17.9191 22.597L20.9391 24.9138L21.0079 24.9432C21.6373 25.2195 22.2748 25.0657 22.6116 24.7945C22.951 24.5213 23.0829 24.172 23.0829 24.172L23.1048 24.1157L25.4385 12.1601C25.5048 11.8651 25.5216 11.5888 25.4485 11.3207C25.3731 11.0494 25.199 10.816 24.9604 10.6663C24.76 10.5445 24.5277 10.4857 24.2935 10.4976ZM24.2304 11.7788C24.2279 11.8182 24.2354 11.8138 24.2179 11.8895V11.8963L21.906 23.7276C21.896 23.7445 21.8791 23.7813 21.8329 23.8182C21.7841 23.857 21.7454 23.8813 21.5423 23.8007L17.8485 20.9688L15.6173 23.0026L16.086 20.0088L22.121 14.3838C22.3698 14.1526 22.2866 14.1038 22.2866 14.1038C22.3041 13.8201 21.911 14.0207 21.911 14.0207L14.301 18.7351L14.2985 18.7226L10.651 17.4945V17.492L10.6416 17.4901C10.648 17.488 10.6543 17.4855 10.6604 17.4826L10.6804 17.4726L10.6998 17.4657C10.6998 17.4657 13.9566 16.0932 17.2673 14.6995C18.9248 14.0013 20.5948 13.2982 21.8791 12.7557C23.1635 12.2163 24.1129 11.8207 24.1666 11.7995C24.2179 11.7795 24.1935 11.7795 24.2304 11.7795V11.7788Z" fill="white"/>
<circle cx="18" cy="18" r="16.5" stroke="white" stroke-width="3"/>
</svg>
