<svg width="37" height="37" viewBox="0 0 37 37" fill="none" xmlns="http://www.w3.org/2000/svg">
<path d="M18.333 32.7335C22.1521 32.7335 25.8148 31.2164 28.5153 28.5158C31.2159 25.8153 32.733 22.1526 32.733 18.3335C32.733 14.5144 31.2159 10.8517 28.5153 8.15116C25.8148 5.45063 22.1521 3.9335 18.333 3.9335C14.5139 3.9335 10.8512 5.45063 8.15067 8.15116C5.45015 10.8517 3.93301 14.5144 3.93301 18.3335C3.93301 22.1526 5.45015 25.8153 8.15067 28.5158C10.8512 31.2164 14.5139 32.7335 18.333 32.7335V32.7335ZM18.333 36.3335C8.39161 36.3335 0.333008 28.2749 0.333008 18.3335C0.333008 8.3921 8.39161 0.333496 18.333 0.333496C28.2744 0.333496 36.333 8.3921 36.333 18.3335C36.333 28.2749 28.2744 36.3335 18.333 36.3335Z" fill="white"/>
<path d="M24.8917 17.2607C24.9133 14.5751 22.6975 12.1127 19.9525 11.7725L19.7725 11.7455C19.6348 11.7182 19.4951 11.7025 19.3549 11.6987C18.7915 11.6987 18.6421 12.1055 18.6025 12.3485C18.58 12.4495 18.578 12.5538 18.5965 12.6556C18.6151 12.7573 18.6538 12.8542 18.7105 12.9407C18.8977 13.2017 19.2253 13.2467 19.4881 13.2863C19.5655 13.2971 19.6393 13.3061 19.6987 13.3223C22.1665 13.8893 22.9981 14.7839 23.4031 17.3093C23.4139 17.3723 23.4175 17.4479 23.4211 17.5289C23.4391 17.8295 23.4769 18.4577 24.1321 18.4577C24.1861 18.4577 24.2437 18.4541 24.3049 18.4433C24.9151 18.3479 24.8953 17.7737 24.8863 17.4983C24.8817 17.4318 24.8817 17.3651 24.8863 17.2985C24.8883 17.2866 24.8895 17.2746 24.8899 17.2625L24.8917 17.2607Z" fill="white"/>
<path d="M19.1973 10.7863C19.2693 10.7917 19.3413 10.7971 19.3971 10.8061C23.4471 11.4505 25.3119 13.4305 25.8285 17.6461C25.8375 17.7181 25.8375 17.8045 25.8393 17.8981C25.8447 18.2275 25.8555 18.9115 26.5683 18.9259H26.5899C26.6878 18.9311 26.7856 18.9153 26.8769 18.8796C26.9681 18.8439 27.0507 18.7891 27.1191 18.7189C27.3405 18.4795 27.3261 18.1249 27.3135 17.8369C27.3099 17.7685 27.3063 17.7019 27.3081 17.6443C27.3585 13.3333 23.7441 9.42369 19.5717 9.27969L19.5213 9.28149C19.5052 9.28386 19.489 9.28506 19.4727 9.28509C19.4313 9.28509 19.3791 9.28149 19.3251 9.27789C19.2533 9.27133 19.1812 9.26772 19.1091 9.26709C18.4449 9.26709 18.3189 9.75309 18.3027 10.0447C18.2667 10.7161 18.8949 10.7647 19.1973 10.7863V10.7863ZM25.6323 23.0929C25.5456 23.025 25.4598 22.956 25.3749 22.8859C24.9321 22.5187 24.4605 22.1803 24.0069 21.8527C23.912 21.7845 23.8172 21.7161 23.7225 21.6475C23.1393 21.2263 22.6155 21.0193 22.1205 21.0193C21.4545 21.0193 20.8731 21.4009 20.3925 22.1515C20.1801 22.4827 19.9209 22.6447 19.6041 22.6447C19.3829 22.6368 19.1661 22.5809 18.9687 22.4809C17.0877 21.5989 15.7431 20.2489 14.9745 18.4669C14.6037 17.6029 14.7225 17.0413 15.3777 16.5823C15.7485 16.3231 16.4397 15.8389 16.3911 14.9119C16.3371 13.8589 14.0853 10.6909 13.1367 10.3309C12.732 10.1782 12.2858 10.1769 11.8803 10.3273C10.7913 10.7053 10.0083 11.3713 9.61769 12.2479C9.23969 13.0975 9.25769 14.0929 9.66809 15.1297C10.8507 18.1285 12.5121 20.7421 14.6109 22.8985C16.6629 25.0099 19.1865 26.7379 22.1097 28.0375C22.3725 28.1545 22.6497 28.2175 22.8513 28.2643L23.0223 28.3075C23.0457 28.3142 23.0699 28.3179 23.0943 28.3183H23.1177C24.4929 28.3183 26.1435 27.0223 26.6511 25.5427C27.0957 24.2467 26.2839 23.6077 25.6323 23.0947V23.0929ZM19.8057 14.2117C19.5717 14.2171 19.0803 14.2297 18.9075 14.7445C18.8283 14.9857 18.8373 15.1945 18.9363 15.3655C19.0821 15.6175 19.3629 15.6949 19.6167 15.7363C20.5383 15.8893 21.0135 16.4167 21.1071 17.3923C21.1521 17.8495 21.4491 18.1663 21.8307 18.1663C21.8595 18.1669 21.8884 18.1657 21.9171 18.1627C22.3761 18.1051 22.5975 17.7577 22.5777 17.1277C22.5849 16.4689 22.2519 15.7237 21.6849 15.1297C21.1161 14.5321 20.4303 14.1955 19.8057 14.2117V14.2117Z" fill="white"/>
</svg>
