<svg width="34" height="34" viewBox="0 0 34 34" fill="none" xmlns="http://www.w3.org/2000/svg">
<path d="M17 30.3333C20.5362 30.3333 23.9276 28.9285 26.4281 26.4281C28.9286 23.9276 30.3334 20.5362 30.3334 17C30.3334 13.4637 28.9286 10.0724 26.4281 7.57187C23.9276 5.07139 20.5362 3.66663 17 3.66663C13.4638 3.66663 10.0724 5.07139 7.57194 7.57187C5.07145 10.0724 3.66669 13.4637 3.66669 17C3.66669 20.5362 5.07145 23.9276 7.57194 26.4281C10.0724 28.9285 13.4638 30.3333 17 30.3333V30.3333ZM17 33.6666C7.79503 33.6666 0.333359 26.205 0.333359 17C0.333359 7.79496 7.79503 0.333298 17 0.333298C26.205 0.333298 33.6667 7.79496 33.6667 17C33.6667 26.205 26.205 33.6666 17 33.6666Z" fill="white"/>
<path d="M23.0733 16.0067C23.0933 13.52 21.0416 11.24 18.5 10.925L18.3333 10.9C18.2058 10.8747 18.0765 10.8602 17.9466 10.8567C17.425 10.8567 17.2866 11.2333 17.25 11.4583C17.2292 11.5518 17.2273 11.6484 17.2445 11.7426C17.2616 11.8368 17.2975 11.9266 17.35 12.0067C17.5233 12.2483 17.8266 12.29 18.07 12.3267C18.1416 12.3367 18.21 12.345 18.265 12.36C20.55 12.885 21.32 13.7133 21.695 16.0517C21.705 16.11 21.7083 16.18 21.7116 16.255C21.7283 16.5333 21.7633 17.115 22.37 17.115C22.42 17.115 22.4733 17.1117 22.53 17.1017C23.095 17.0133 23.0766 16.4817 23.0683 16.2267C23.0641 16.1651 23.0641 16.1033 23.0683 16.0417C23.0701 16.0306 23.0712 16.0195 23.0716 16.0083L23.0733 16.0067Z" fill="white"/>
<path d="M17.8 10.0117C17.8666 10.0167 17.9333 10.0217 17.985 10.03C21.735 10.6267 23.4616 12.46 23.94 16.3634C23.9483 16.43 23.9483 16.51 23.95 16.5967C23.955 16.9017 23.965 17.535 24.625 17.5484H24.645C24.7356 17.5532 24.8262 17.5386 24.9107 17.5055C24.9952 17.4725 25.0717 17.4217 25.135 17.3567C25.34 17.135 25.3266 16.8067 25.315 16.54C25.3116 16.4767 25.3083 16.415 25.31 16.3617C25.3566 12.37 22.01 8.75003 18.1466 8.61669L18.1 8.61836C18.0851 8.62055 18.07 8.62167 18.055 8.62169C18.0166 8.62169 17.9683 8.61836 17.9183 8.61503C17.8518 8.60895 17.7851 8.60561 17.7183 8.60503C17.1033 8.60503 16.9866 9.05503 16.9716 9.32503C16.9383 9.94669 17.52 9.99169 17.8 10.0117V10.0117ZM23.7583 21.4067C23.6781 21.3438 23.5986 21.2799 23.52 21.215C23.11 20.875 22.6733 20.5617 22.2533 20.2584C22.1654 20.1952 22.0776 20.1318 21.99 20.0684C21.45 19.6784 20.965 19.4867 20.5066 19.4867C19.89 19.4867 19.3516 19.84 18.9066 20.535C18.71 20.8417 18.47 20.9917 18.1766 20.9917C17.9719 20.9844 17.7711 20.9326 17.5883 20.84C15.8466 20.0234 14.6016 18.7734 13.89 17.1234C13.5466 16.3234 13.6566 15.8034 14.2633 15.3784C14.6066 15.1384 15.2466 14.69 15.2016 13.8317C15.1516 12.8567 13.0666 9.92336 12.1883 9.59003C11.8136 9.44862 11.4005 9.44744 11.025 9.58669C10.0166 9.93669 9.29165 10.5534 8.92998 11.365C8.57998 12.1517 8.59664 13.0734 8.97664 14.0334C10.0716 16.81 11.61 19.23 13.5533 21.2267C15.4533 23.1817 17.79 24.7817 20.4966 25.985C20.74 26.0934 20.9966 26.1517 21.1833 26.195L21.3416 26.235C21.3633 26.2413 21.3857 26.2446 21.4083 26.245H21.43C22.7033 26.245 24.2316 25.045 24.7016 23.675C25.1133 22.475 24.3616 21.8834 23.7583 21.4084V21.4067ZM18.3633 13.1834C18.1466 13.1884 17.6916 13.2 17.5316 13.6767C17.4583 13.9 17.4666 14.0934 17.5583 14.2517C17.6933 14.485 17.9533 14.5567 18.1883 14.595C19.0416 14.7367 19.4816 15.225 19.5683 16.1284C19.61 16.5517 19.885 16.845 20.2383 16.845C20.265 16.8456 20.2917 16.8445 20.3183 16.8417C20.7433 16.7884 20.9483 16.4667 20.93 15.8834C20.9366 15.2734 20.6283 14.5834 20.1033 14.0334C19.5766 13.48 18.9416 13.1684 18.3633 13.1834V13.1834Z" fill="white"/>
</svg>
