<svg width="36" height="36" viewBox="0 0 36 36" fill="none" xmlns="http://www.w3.org/2000/svg">
<path d="M36 18C36 8.05613 27.9371 0 18 0C8.05613 0 0 8.05613 0 18C0 26.982 6.58012 34.4295 15.1875 35.7784V23.2042H10.6166V18.0011H15.1875V14.0332C15.1875 9.52313 17.8706 7.03237 21.9836 7.03237C23.9535 7.03237 26.0156 7.38338 26.0156 7.38338V11.8125H23.742C21.51 11.8125 20.8125 13.2019 20.8125 14.625V18H25.8041L25.002 23.2031H20.8125V35.7773C29.4131 34.4284 36 26.9809 36 17.9989V18Z" fill="white"/>
</svg>
