<svg width="35" height="34" viewBox="0 0 35 34" fill="none" xmlns="http://www.w3.org/2000/svg">
<g clip-path="url(#clip0)">
<path d="M25.286 20.3756C24.8599 20.1599 22.7849 19.1473 22.3971 19.0028C22.0092 18.8647 21.7277 18.7924 21.4451 19.2185C21.1688 19.6339 20.3549 20.5849 20.1063 20.8622C19.8577 21.1395 19.6133 21.1607 19.1936 20.9727C18.7676 20.757 17.4065 20.3139 15.7904 18.8647C14.5282 17.7416 13.6877 16.3582 13.4381 15.9322C13.1894 15.5114 13.4104 15.2734 13.6208 15.0631C13.8142 14.8697 14.0469 14.5764 14.2626 14.3214C14.4676 14.0664 14.5335 13.8954 14.6833 13.6191C14.8214 13.3206 14.7502 13.0879 14.6451 12.8775C14.5399 12.6671 13.6931 10.5814 13.3392 9.75056C13.0014 8.92606 12.6476 9.03125 12.3872 9.03125C12.1439 9.00894 11.8613 9.00894 11.5798 9.00894C11.2982 9.00894 10.8381 9.11413 10.4503 9.51788C10.0625 9.94394 8.96706 10.9618 8.96706 13.0209C8.96706 15.0854 10.4832 17.0829 10.6936 17.3814C10.9093 17.6577 13.6761 21.9077 17.9207 23.7341C18.9333 24.1602 19.7196 24.4152 20.3337 24.6256C21.3463 24.9464 22.2706 24.9018 23.0006 24.7966C23.8081 24.6638 25.5017 23.7724 25.8566 22.7768C26.2167 21.7749 26.2167 20.9451 26.1116 20.757C26.0064 20.5636 25.7301 20.4584 25.3041 20.2704L25.286 20.3756ZM17.5882 30.8125H17.5659C15.0531 30.8125 12.5689 30.1314 10.3993 28.8586L9.89038 28.5547L4.57788 29.9381L6.00588 24.769L5.66269 24.2378C4.25962 22.0069 3.51527 19.425 3.51538 16.7896C3.51538 9.07587 9.82981 2.78375 17.5988 2.78375C21.3622 2.78375 24.8929 4.25 27.5491 6.90625C28.8595 8.201 29.8989 9.74374 30.6067 11.4445C31.3145 13.1452 31.6765 14.9698 31.6716 16.8119C31.661 24.5204 25.3519 30.8125 17.5935 30.8125H17.5882ZM29.5689 4.88644C26.3368 1.76481 22.0868 0 17.5659 0C8.24138 0 0.64875 7.55969 0.643438 16.8502C0.643438 19.8167 1.418 22.7109 2.90125 25.2726L0.5 34L9.476 31.6593C11.9626 32.9999 14.742 33.7051 17.5669 33.7121H17.5723C26.9021 33.7121 34.4947 26.1524 34.5 16.8555C34.5 12.3569 32.7458 8.12281 29.5477 4.94063L29.5689 4.88644Z" fill="white"/>
</g>
<defs>
<clipPath id="clip0">
<rect width="34" height="34" fill="white" transform="translate(0.5)"/>
</clipPath>
</defs>
</svg>
