<svg width="32" height="32" viewBox="0 0 32 32" fill="none" xmlns="http://www.w3.org/2000/svg">
<path d="M22.275 17.15C23.95 15.475 24.875 13.2437 24.875 10.875C24.875 8.50313 23.9531 6.275 22.275 4.6C20.6 2.925 18.3687 2 16 2C13.6312 2 11.4 2.92187 9.725 4.6C8.05 6.27812 7.125 8.50313 7.125 10.875C7.125 12.8687 7.77812 14.7625 8.98125 16.3094C9.20937 16.6031 9.45625 16.8812 9.72188 17.15C9.9875 17.4156 10.2687 17.6625 10.5594 17.8906C11.7969 18.8531 13.2562 19.4656 14.8125 19.6719V23H11.25C11.1125 23 11 23.1125 11 23.25V25.125C11 25.2625 11.1125 25.375 11.25 25.375H14.8125V29.75C14.8125 29.8875 14.925 30 15.0625 30H16.9375C17.075 30 17.1875 29.8875 17.1875 29.75V25.375H20.75C20.8875 25.375 21 25.2625 21 25.125V23.25C21 23.1125 20.8875 23 20.75 23H17.1875V19.6719C19.1094 19.4156 20.8812 18.5437 22.275 17.15ZM16 17.375C14.2625 17.375 12.6344 16.7 11.4031 15.4719C10.175 14.2438 9.5 12.6125 9.5 10.875C9.5 9.1375 10.175 7.50937 11.4031 6.27812C12.6312 5.04687 14.2625 4.375 16 4.375C17.7375 4.375 19.3656 5.05 20.5969 6.27812C21.825 7.50625 22.5 9.1375 22.5 10.875C22.5 12.6125 21.825 14.2406 20.5969 15.4719C19.3656 16.7 17.7375 17.375 16 17.375Z" fill="#F15B7D"/>
</svg>
